<?xml version="1.0" encoding="utf-8"?>
<!-- Generator: Adobe Illustrator 15.1.0, SVG Export Plug-In . SVG Version: 6.00 Build 0)  -->
<!DOCTYPE svg PUBLIC "-//W3C//DTD SVG 1.1//EN" "http://www.w3.org/Graphics/SVG/1.1/DTD/svg11.dtd">
<svg version="1.1" id="Layer_1" xmlns="http://www.w3.org/2000/svg" xmlns:xlink="http://www.w3.org/1999/xlink" x="0px" y="0px"
	 width="169.718px" height="174.028px" viewBox="0 0 169.718 174.028" enable-background="new 0 0 169.718 174.028"
	 xml:space="preserve">
<g>
	<defs>
		<polyline id="SVGID_1_" points="36.753,3.865 162.611,3.865 162.611,170.769 36.753,170.769 		"/>
	</defs>
	<clipPath id="SVGID_2_">
		<use xlink:href="#SVGID_1_"  overflow="visible"/>
	</clipPath>
	<g clip-path="url(#SVGID_2_)">
		<defs>
			<polygon id="SVGID_3_" points="45.229,161.089 44.942,4.889 36.832,8.489 36.961,170.782 			"/>
		</defs>
		<clipPath id="SVGID_4_">
			<use xlink:href="#SVGID_3_"  overflow="visible"/>
		</clipPath>
		
			<linearGradient id="SVGID_5_" gradientUnits="userSpaceOnUse" x1="302.5317" y1="955.7969" x2="309.8915" y2="955.7969" gradientTransform="matrix(-1 0 0 -1 347.1621 1043.6211)">
			<stop  offset="0" style="stop-color:#44C8F5"/>
			<stop  offset="1" style="stop-color:#FFFFFF"/>
		</linearGradient>
		<polyline clip-path="url(#SVGID_4_)" fill="url(#SVGID_5_)" points="36.931,170.824 36.931,132.224 36.831,132.224 36.831,8.423 
			36.931,8.423 36.931,8.324 37.131,8.324 37.131,8.224 37.331,8.224 37.331,8.124 37.631,8.124 37.631,8.024 37.831,8.024 
			37.831,7.923 38.031,7.923 38.031,7.824 38.231,7.824 38.231,7.724 38.531,7.724 38.531,7.624 38.731,7.624 38.731,7.524 
			38.931,7.524 38.931,7.423 39.131,7.423 39.131,7.324 39.431,7.324 39.431,7.224 39.631,7.224 39.631,7.124 39.831,7.124 
			39.831,7.024 40.131,7.024 40.131,6.923 40.331,6.923 40.331,6.824 40.531,6.824 40.531,6.724 40.731,6.724 40.731,6.624 
			41.031,6.624 41.031,6.524 41.231,6.524 41.231,6.423 41.431,6.423 41.431,6.324 41.631,6.324 41.631,6.224 41.931,6.224 
			41.931,6.124 42.131,6.124 42.131,6.024 42.331,6.024 42.331,5.923 42.531,5.923 42.531,5.824 42.831,5.824 42.831,5.724 
			43.031,5.724 43.031,5.624 43.231,5.624 43.231,5.524 43.431,5.524 43.431,5.423 43.731,5.423 43.731,5.324 43.931,5.324 
			43.931,5.224 44.131,5.224 44.131,5.124 44.331,5.124 44.331,5.024 44.631,5.024 44.631,4.923 44.831,4.923 44.831,4.824 
			45.031,4.824 45.031,53.324 45.131,53.324 45.131,107.624 45.231,107.624 45.231,161.224 45.131,161.224 45.131,161.324 
			45.031,161.324 45.031,161.524 44.931,161.524 44.931,161.624 44.831,161.624 44.831,161.724 44.731,161.724 44.731,161.824 
			44.631,161.824 44.631,161.923 44.531,161.923 44.531,162.124 44.431,162.124 44.431,162.224 44.331,162.224 44.331,162.324 
			44.231,162.324 44.231,162.423 44.131,162.423 44.131,162.524 44.031,162.524 44.031,162.624 43.931,162.624 43.931,162.824 
			43.831,162.824 43.831,162.923 43.731,162.923 43.731,163.024 43.631,163.024 43.631,163.124 43.531,163.124 43.531,163.224 
			43.431,163.224 43.431,163.324 43.331,163.324 43.331,163.524 43.231,163.524 43.231,163.624 43.131,163.624 43.131,163.724 
			43.031,163.724 43.031,163.824 42.931,163.824 42.931,163.923 42.831,163.923 42.831,164.024 42.731,164.024 42.731,164.224 
			42.631,164.224 42.631,164.324 42.531,164.324 42.531,164.423 42.431,164.423 42.431,164.524 42.331,164.524 42.331,164.624 
			42.231,164.624 42.231,164.724 42.131,164.724 42.131,164.923 42.031,164.923 42.031,165.024 41.931,165.024 41.931,165.124 
			41.831,165.124 41.831,165.224 41.731,165.224 41.731,165.324 41.631,165.324 41.631,165.524 41.531,165.524 41.531,165.624 
			41.431,165.624 41.431,165.724 41.331,165.724 41.331,165.824 41.231,165.824 41.231,165.923 41.131,165.923 41.131,166.024 
			41.031,166.024 41.031,166.224 40.931,166.224 40.931,166.324 40.831,166.324 40.831,166.423 40.731,166.423 40.731,166.524 
			40.631,166.524 40.631,166.624 40.531,166.624 40.531,166.724 40.431,166.724 40.431,166.923 40.331,166.923 40.331,167.024 
			40.231,167.024 40.231,167.124 40.131,167.124 40.131,167.224 40.031,167.224 40.031,167.324 39.931,167.324 39.931,167.423 
			39.831,167.423 39.831,167.624 39.731,167.624 39.731,167.724 39.631,167.724 39.631,167.824 39.531,167.824 39.531,167.923 
			39.431,167.923 39.431,168.024 39.331,168.024 39.331,168.124 39.231,168.124 39.231,168.324 39.131,168.324 39.131,168.423 
			39.031,168.423 39.031,168.524 38.931,168.524 38.931,168.624 38.831,168.624 38.831,168.724 38.731,168.724 38.731,168.923 
			38.631,168.923 38.631,169.024 38.531,169.024 38.531,169.124 38.431,169.124 38.431,169.224 38.331,169.224 38.331,169.324 
			38.231,169.324 38.231,169.423 38.131,169.423 38.131,169.624 38.031,169.624 38.031,169.724 37.931,169.724 37.931,169.824 
			37.831,169.824 37.831,169.923 37.731,169.923 37.731,170.024 37.631,170.024 37.631,170.124 37.531,170.124 37.531,170.324 
			37.431,170.324 37.431,170.423 37.331,170.423 37.331,170.524 37.231,170.524 37.231,170.624 37.131,170.624 37.131,170.724 
			37.031,170.724 37.031,170.824 		"/>
	</g>
</g>
<g>
	<defs>
		<polyline id="SVGID_6_" points="36.753,3.865 162.611,3.865 162.611,170.769 36.753,170.769 		"/>
	</defs>
	<clipPath id="SVGID_7_">
		<use xlink:href="#SVGID_6_"  overflow="visible"/>
	</clipPath>
	<g clip-path="url(#SVGID_7_)">
		<defs>
			<polygon id="SVGID_8_" points="125.569,161.089 125.857,4.889 133.967,12.319 133.837,170.782 			"/>
		</defs>
		<clipPath id="SVGID_9_">
			<use xlink:href="#SVGID_8_"  overflow="visible"/>
		</clipPath>
		
			<linearGradient id="SVGID_10_" gradientUnits="userSpaceOnUse" x1="-336.8486" y1="386.2031" x2="-329.4889" y2="386.2031" gradientTransform="matrix(1 0 0 1 463.0166 -298.3799)">
			<stop  offset="0" style="stop-color:#44C8F5"/>
			<stop  offset="1" style="stop-color:#FFFFFF"/>
		</linearGradient>
		<polyline clip-path="url(#SVGID_9_)" fill="url(#SVGID_10_)" points="133.731,170.824 133.731,170.724 133.631,170.724 
			133.631,170.624 133.531,170.624 133.531,170.423 133.431,170.423 133.431,170.324 133.331,170.324 133.331,170.224 
			133.231,170.224 133.231,170.124 133.131,170.124 133.131,170.024 133.031,170.024 133.031,169.923 132.931,169.923 
			132.931,169.724 132.831,169.724 132.831,169.624 132.731,169.624 132.731,169.524 132.631,169.524 132.631,169.423 
			132.531,169.423 132.531,169.324 132.431,169.324 132.431,169.224 132.331,169.224 132.331,169.024 132.231,169.024 
			132.231,168.923 132.131,168.923 132.131,168.824 132.031,168.824 132.031,168.724 131.931,168.724 131.931,168.624 
			131.831,168.624 131.831,168.524 131.731,168.524 131.731,168.324 131.631,168.324 131.631,168.224 131.531,168.224 
			131.531,168.124 131.431,168.124 131.431,168.024 131.331,168.024 131.331,167.923 131.231,167.923 131.231,167.824 
			131.131,167.824 131.131,167.624 131.031,167.624 131.031,167.524 130.931,167.524 130.931,167.423 130.831,167.423 
			130.831,167.324 130.731,167.324 130.731,167.224 130.631,167.224 130.631,167.024 130.531,167.024 130.531,166.923 
			130.431,166.923 130.431,166.824 130.331,166.824 130.331,166.724 130.231,166.724 130.231,166.624 130.131,166.624 
			130.131,166.524 130.031,166.524 130.031,166.324 129.931,166.324 129.931,166.224 129.831,166.224 129.831,166.124 
			129.731,166.124 129.731,166.024 129.631,166.024 129.631,165.923 129.531,165.923 129.531,165.824 129.431,165.824 
			129.431,165.624 129.331,165.624 129.331,165.524 129.231,165.524 129.231,165.423 129.131,165.423 129.131,165.324 
			129.031,165.324 129.031,165.224 128.931,165.224 128.931,165.124 128.831,165.124 128.831,164.923 128.731,164.923 
			128.731,164.824 128.631,164.824 128.631,164.724 128.531,164.724 128.531,164.624 128.431,164.624 128.431,164.524 
			128.331,164.524 128.331,164.423 128.231,164.423 128.231,164.224 128.131,164.224 128.131,164.124 128.031,164.124 
			128.031,164.024 127.931,164.024 127.931,163.923 127.831,163.923 127.831,163.824 127.731,163.824 127.731,163.624 
			127.631,163.624 127.631,163.524 127.531,163.524 127.531,163.423 127.431,163.423 127.431,163.324 127.331,163.324 
			127.331,163.224 127.231,163.224 127.231,163.124 127.131,163.124 127.131,162.923 127.031,162.923 127.031,162.824 
			126.931,162.824 126.931,162.724 126.831,162.724 126.831,162.624 126.731,162.624 126.731,162.524 126.631,162.524 
			126.631,162.423 126.531,162.423 126.531,162.224 126.431,162.224 126.431,162.124 126.331,162.124 126.331,162.024 
			126.231,162.024 126.231,161.923 126.131,161.923 126.131,161.824 126.031,161.824 126.031,161.724 125.931,161.724 
			125.931,161.524 125.831,161.524 125.831,161.423 125.731,161.423 125.731,161.324 125.631,161.324 125.631,161.224 
			125.531,161.224 125.531,127.524 125.631,127.524 125.631,73.324 125.731,73.324 125.731,19.024 125.831,19.024 125.831,4.824 
			125.931,4.824 125.931,4.923 126.031,4.923 126.031,5.024 126.131,5.024 126.131,5.124 126.231,5.124 126.231,5.224 
			126.431,5.224 126.431,5.324 126.531,5.324 126.531,5.423 126.631,5.423 126.631,5.524 126.731,5.524 126.731,5.624 
			126.831,5.624 126.831,5.724 126.931,5.724 126.931,5.824 127.031,5.824 127.031,5.923 127.131,5.923 127.131,6.024 
			127.231,6.024 127.231,6.124 127.331,6.124 127.331,6.224 127.431,6.224 127.431,6.324 127.631,6.324 127.631,6.423 
			127.731,6.423 127.731,6.524 127.831,6.524 127.831,6.624 127.931,6.624 127.931,6.724 128.031,6.724 128.031,6.824 
			128.131,6.824 128.131,6.923 128.231,6.923 128.231,7.024 128.331,7.024 128.331,7.124 128.431,7.124 128.431,7.224 
			128.531,7.224 128.531,7.324 128.631,7.324 128.631,7.423 128.831,7.423 128.831,7.524 128.931,7.524 128.931,7.624 
			129.031,7.624 129.031,7.724 129.131,7.724 129.131,7.824 129.231,7.824 129.231,7.923 129.331,7.923 129.331,8.024 
			129.431,8.024 129.431,8.124 129.531,8.124 129.531,8.224 129.631,8.224 129.631,8.324 129.731,8.324 129.731,8.423 
			129.831,8.423 129.831,8.524 130.031,8.524 130.031,8.624 130.131,8.624 130.131,8.724 130.231,8.724 130.231,8.824 
			130.331,8.824 130.331,8.923 130.431,8.923 130.431,9.024 130.531,9.024 130.531,9.124 130.631,9.124 130.631,9.224 
			130.731,9.224 130.731,9.324 130.831,9.324 130.831,9.423 130.931,9.423 130.931,9.524 131.031,9.524 131.031,9.624 
			131.231,9.624 131.231,9.724 131.331,9.724 131.331,9.824 131.431,9.824 131.431,9.923 131.531,9.923 131.531,10.024 
			131.631,10.024 131.631,10.124 131.731,10.124 131.731,10.224 131.831,10.224 131.831,10.324 131.931,10.324 131.931,10.423 
			132.031,10.423 132.031,10.524 132.131,10.524 132.131,10.624 132.231,10.624 132.231,10.724 132.431,10.724 132.431,10.824 
			132.531,10.824 132.531,10.923 132.631,10.923 132.631,11.024 132.731,11.024 132.731,11.124 132.831,11.124 132.831,11.224 
			132.931,11.224 132.931,11.324 133.031,11.324 133.031,11.423 133.131,11.423 133.131,11.524 133.231,11.524 133.231,11.624 
			133.331,11.624 133.331,11.724 133.431,11.724 133.431,11.824 133.631,11.824 133.631,11.923 133.731,11.923 133.731,12.024 
			133.831,12.024 133.831,12.124 133.931,12.124 133.931,12.224 134.031,12.224 134.031,55.824 133.931,55.824 133.931,170.824 		
			"/>
	</g>
</g>
<g>
	<defs>
		<polyline id="SVGID_11_" points="36.753,3.865 162.611,3.865 162.611,170.769 36.753,170.769 		"/>
	</defs>
	<clipPath id="SVGID_12_">
		<use xlink:href="#SVGID_11_"  overflow="visible"/>
	</clipPath>
	<polyline clip-path="url(#SVGID_12_)" fill="none" stroke="#00AEEF" stroke-width="0.7999" stroke-miterlimit="22.9256" points="
		44.964,148.947 48.234,146.709 51.799,144.312 55.148,142.141 58.369,140.162 61.797,138.208 65.097,136.506 68.604,134.925 
		71.983,133.649 75.233,132.67 76.879,132.274 78.692,131.917 80.411,131.657 81.181,131.565 82.022,131.483 82.478,131.446 
		82.9,131.417 83.338,131.392 83.735,131.374 84.126,131.36 84.305,131.355 84.494,131.351 84.696,131.347 84.786,131.346 
		84.883,131.345 84.986,131.343 85.083,131.342 85.399,131.342 85.503,131.343 85.601,131.343 85.691,131.345 85.9,131.348 
		86.12,131.353 86.335,131.358 86.535,131.365 86.988,131.382 87.742,131.424 88.547,131.487 89.413,131.573 90.354,131.688 
		92.058,131.957 95.521,132.732 98.856,133.756 102.063,134.985 105.476,136.531 108.761,138.226 112.254,140.221 115.619,142.294 
		118.856,144.399 122.299,146.716 125.559,148.947 	"/>
	<path clip-path="url(#SVGID_12_)" fill="#00AEEF" d="M103.013,128.547L103.013,128.547 M44.689,111.401l3.27-4.439l0.006-0.011
		l3.566-4.504l0.018-0.021l3.35-3.611l0.017-0.018l0.016-0.013l3.221-2.673l0.017-0.014l0.023-0.015l1.655-1.011l0.015-0.009
		l0.016-0.007l0.921-0.446l0.024-0.011l0.85-0.335l0.026-0.011l0.864-0.264l0.021-0.005l0.455-0.108l0.016-0.003l0.483-0.09
		l0.012-0.003l0.202-0.03h0.008l0.217-0.027l0.007-0.002l0.188-0.021l0.007-0.003l0.204-0.017h0.007l0.124-0.009h0.005l0.116-0.007
		h0.002l0.11-0.005h0.004l0.057-0.002h0.001l0.061-0.001h0.002l0.06-0.002h0.004l0.056-0.001h0.002h0.108h0.004h0.099h0.003
		l0.104,0.001h0.005l0.103,0.003h0.004l0.059,0.002h0.002l0.054,0.002h0.004l0.204,0.012h0.008l0.186,0.014l0.007,0.003l0.196,0.019
		l0.012,0.001l0.408,0.054l0.015,0.001l0.451,0.077l0.021,0.005l0.8,0.191l0.025,0.009l0.751,0.241l0.018,0.005l0.018,0.008
		l1.708,0.764l0.022,0.01l0.017,0.01l1.565,0.953l0.023,0.014l0.017,0.015l3.354,2.782l0.016,0.013l0.016,0.018l3.226,3.479
		l0.017,0.02l3.434,4.32l0.007,0.009l3.304,4.479l0.001,0.001l3.504,4.757h0.001l3.385,4.276l3.227,3.511l1.63,1.485l1.781,1.364
		l1.695,1.021l1.568,0.687l0.841,0.26l0.434,0.104l0.39,0.076v0.001l0.337,0.052l0.374,0.043v-0.001l0.222,0.018v0.001l0.104,0.008
		l0.092,0.005h0.003l0.082,0.004h0.004l0.09,0.003h0.005l0.092,0.002h0.002l0.097,0.002h0.111l0.097-0.001h0.003l0.048-0.001h0.003
		l0.054-0.001h0.002l0.112-0.004h0.005l0.097-0.005h0.004l0.102-0.006l0.203-0.017l0.001,0.002l0.187-0.017v-0.001l0.21-0.025
		l0.364-0.054l0.417-0.08l0.399-0.095l0.895-0.274l0.858-0.344l0.82-0.401l1.553-0.941l3.212-2.649l3.437-3.707l3.339-4.215
		l0.001,0.001l3.203-4.341h-0.001l0.21-0.288l0.552,0.403l-0.209,0.287l-0.003,0.001l-3.211,4.352l-0.005,0.009l-3.339,4.215
		l-0.019,0.021l-3.467,3.741l-0.013,0.014l-0.021,0.017l-3.26,2.688l-0.026,0.021l-0.012,0.008l-1.575,0.954l-0.008,0.007
		l-0.02,0.009l-0.842,0.411l-0.022,0.009l-0.893,0.357l-0.026,0.011l-0.925,0.282l-0.023,0.008l-0.407,0.096l-0.014,0.003
		l-0.438,0.084l-0.015,0.003l-0.377,0.056l-0.01,0.002l-0.21,0.025h-0.008l-0.201,0.018l-0.006,0.004l-0.204,0.015h-0.007
		l-0.113,0.007h-0.004l-0.104,0.004h-0.004l-0.12,0.004h-0.002l-0.059,0.002h-0.003l-0.054,0.001h-0.003l-0.103,0.001h-0.117
		l-0.104-0.002h-0.002l-0.1-0.002h-0.004l-0.097-0.003h-0.004l-0.091-0.005h-0.002l-0.1-0.005h-0.006l-0.108-0.007h-0.003
		l-0.222-0.019l-0.012-0.003l-0.388-0.045l-0.013-0.003l-0.364-0.056l-0.013-0.002l-0.402-0.079l-0.013-0.002l-0.435-0.105
		l-0.021-0.006l-0.881-0.272l-0.02-0.006l-0.017-0.008l-1.611-0.705l-0.024-0.011l-0.016-0.009l-1.723-1.037l-0.013-0.008
		l-0.019-0.014l-1.813-1.389l-0.023-0.019l-1.648-1.503l-0.012-0.011l-0.011-0.012l-3.255-3.541l-0.017-0.019l-3.385-4.276
		l-0.006-0.011l-3.511-4.766l-0.001-0.002l-3.296-4.467l-3.424-4.308l-3.2-3.453l-3.32-2.755l-1.527-0.93l-1.667-0.744l-0.712-0.229
		l-0.791-0.189l-0.436-0.076v-0.001l-0.384-0.049l-0.19-0.019l-0.001,0.002l-0.185-0.014v-0.001l-0.192-0.01h-0.004l-0.049-0.002
		h-0.001l-0.053-0.003h-0.004L65.3,94.34h-0.004l-0.098-0.001h-0.003l-0.091-0.001H65.1l-0.103,0.001h-0.002l-0.05,0.001h-0.004
		l-0.056,0.001h-0.001l-0.058,0.002h-0.001l-0.052,0.003h-0.004l-0.104,0.005h-0.002l-0.107,0.005v0.001l-0.117,0.008l-0.205,0.018
		V94.38l-0.182,0.021V94.4l-0.201,0.025v0.001l-0.202,0.03l-0.455,0.085l-0.443,0.105l-0.847,0.259l-0.824,0.326l-0.893,0.432
		l-1.619,0.989l-3.188,2.645l-3.313,3.573l-3.566,4.504h-0.001l-3.262,4.43L44.689,111.401z"/>
	<path clip-path="url(#SVGID_12_)" fill="none" stroke="#00AEEF" stroke-width="0.216" stroke-miterlimit="22.9256" d="
		M103.013,128.547L103.013,128.547 M44.689,111.401l3.27-4.439l0.006-0.011l3.566-4.504l0.018-0.021l3.35-3.611l0.017-0.018
		l0.016-0.013l3.221-2.673l0.017-0.014l0.023-0.015l1.655-1.011l0.015-0.009l0.016-0.007l0.921-0.446l0.024-0.011l0.85-0.335
		l0.026-0.011l0.864-0.264l0.021-0.005l0.455-0.108l0.016-0.003l0.483-0.09l0.012-0.003l0.202-0.03h0.008l0.217-0.027l0.007-0.002
		l0.188-0.021l0.007-0.003l0.204-0.017h0.007l0.124-0.009h0.005l0.116-0.007h0.002l0.11-0.005h0.004l0.057-0.002h0.001l0.061-0.001
		h0.002l0.06-0.002h0.004l0.056-0.001h0.002h0.108h0.004h0.099h0.003l0.104,0.001h0.005l0.103,0.003h0.004l0.059,0.002h0.002
		l0.054,0.002h0.004l0.204,0.012h0.008l0.186,0.014l0.007,0.003l0.196,0.019l0.012,0.001l0.408,0.054l0.015,0.001l0.451,0.077
		l0.021,0.005l0.8,0.191l0.025,0.009l0.751,0.241l0.018,0.005l0.018,0.008l1.708,0.764l0.022,0.01l0.017,0.01l1.565,0.953
		l0.023,0.014l0.017,0.015l3.354,2.782l0.016,0.013l0.016,0.018l3.226,3.479l0.017,0.02l3.434,4.32l0.007,0.009l3.304,4.479
		l0.001,0.001l3.504,4.757h0.001l3.385,4.276l3.227,3.511l1.63,1.485l1.781,1.364l1.695,1.021l1.568,0.687l0.841,0.26l0.434,0.104
		l0.39,0.076v0.001l0.337,0.052l0.374,0.043v-0.001l0.222,0.018v0.001l0.104,0.008l0.092,0.005h0.003l0.082,0.004h0.004l0.09,0.003
		h0.005l0.092,0.002h0.002l0.097,0.002h0.111l0.097-0.001h0.003l0.048-0.001h0.003l0.054-0.001h0.002l0.112-0.004h0.005l0.097-0.005
		h0.004l0.102-0.006l0.203-0.017l0.001,0.002l0.187-0.017v-0.001l0.21-0.025l0.364-0.054l0.417-0.08l0.399-0.095l0.895-0.274
		l0.858-0.344l0.82-0.401l1.553-0.941l3.212-2.649l3.437-3.707l3.339-4.215l0.001,0.001l3.203-4.341h-0.001l0.21-0.288l0.552,0.403
		l-0.209,0.287l-0.003,0.001l-3.211,4.352l-0.005,0.009l-3.339,4.215l-0.019,0.021l-3.467,3.741l-0.013,0.014l-0.021,0.017
		l-3.26,2.688l-0.026,0.021l-0.012,0.008l-1.575,0.954l-0.008,0.007l-0.02,0.009l-0.842,0.411l-0.022,0.009l-0.893,0.357
		l-0.026,0.011l-0.925,0.282l-0.023,0.008l-0.407,0.096l-0.014,0.003l-0.438,0.084l-0.015,0.003l-0.377,0.056l-0.01,0.002
		l-0.21,0.025h-0.008l-0.201,0.018l-0.006,0.004l-0.204,0.015h-0.007l-0.113,0.007h-0.004l-0.104,0.004h-0.004l-0.12,0.004h-0.002
		l-0.059,0.002h-0.003l-0.054,0.001h-0.003l-0.103,0.001h-0.117l-0.104-0.002h-0.002l-0.1-0.002h-0.004l-0.097-0.003h-0.004
		l-0.091-0.005h-0.002l-0.1-0.005h-0.006l-0.108-0.007h-0.003l-0.222-0.019l-0.012-0.003l-0.388-0.045l-0.013-0.003l-0.364-0.056
		l-0.013-0.002l-0.402-0.079l-0.013-0.002l-0.435-0.105l-0.021-0.006l-0.881-0.272l-0.02-0.006l-0.017-0.008l-1.611-0.705
		l-0.024-0.011l-0.016-0.009l-1.723-1.037l-0.013-0.008l-0.019-0.014l-1.813-1.389l-0.023-0.019l-1.648-1.503l-0.012-0.011
		l-0.011-0.012l-3.255-3.541l-0.017-0.019l-3.385-4.276l-0.006-0.011l-3.511-4.766l-0.001-0.002l-3.296-4.467l-3.424-4.308
		l-3.2-3.453l-3.32-2.755l-1.527-0.93l-1.667-0.744l-0.712-0.229l-0.791-0.189l-0.436-0.076v-0.001l-0.384-0.049l-0.19-0.019
		l-0.001,0.002l-0.185-0.014v-0.001l-0.192-0.01h-0.004l-0.049-0.002h-0.001l-0.053-0.003h-0.004L65.3,94.34h-0.004l-0.098-0.001
		h-0.003l-0.091-0.001H65.1l-0.103,0.001h-0.002l-0.05,0.001h-0.004l-0.056,0.001h-0.001l-0.058,0.002h-0.001l-0.052,0.003h-0.004
		l-0.104,0.005h-0.002l-0.107,0.005v0.001l-0.117,0.008l-0.205,0.018V94.38l-0.182,0.021V94.4l-0.201,0.025v0.001l-0.202,0.03
		l-0.455,0.085l-0.443,0.105l-0.847,0.259l-0.824,0.326l-0.893,0.432l-1.619,0.989l-3.188,2.645l-3.313,3.573l-3.566,4.504h-0.001
		l-3.262,4.43L44.689,111.401z"/>
	<path clip-path="url(#SVGID_12_)" fill="#00AEEF" d="M105.261,36.525l-0.001,0.003L105.261,36.525L105.261,36.525 M58.814,32.119
		L58.814,32.119L58.814,32.119z M44.658,49.208l3.27-6.567l0.007-0.013l1.701-3.1l0.012-0.017l1.863-2.953l0.008-0.012l0.013-0.017
		l1.733-2.213l0.019-0.023l0.016-0.016l1.616-1.517l0.015-0.015l0.021-0.014l0.425-0.306l0.02-0.013l0.462-0.285l0.024-0.013
		l0.407-0.209l0.024-0.011l0.432-0.181l0.028-0.01l0.389-0.124l0.022-0.005l0.222-0.054l0.016-0.004l0.207-0.041l0.011-0.001
		l0.099-0.016l0.007-0.002l0.093-0.012l0.009-0.002l0.084-0.009h0.004l0.091-0.008l0.009-0.004l0.097-0.007h0.007l0.091-0.004h0.009
		l0.106-0.003h0.112l0.102,0.003h0.01l0.095,0.004h0.007l0.104,0.008l0.008,0.004l0.11,0.011l0.016,0.001l0.228,0.032l0.017,0.003
		l0.208,0.039l0.023,0.005l0.401,0.105l0.027,0.009l0.381,0.136l0.018,0.007l0.02,0.009l0.844,0.422l0.021,0.012l0.023,0.016
		l0.918,0.646l0.021,0.016l0.021,0.021l1.674,1.65l0.021,0.019l0.013,0.019l1.778,2.359l0.011,0.016L65.585,37l3.194,5.478
		l0.011,0.019l3.402,6.83l3.272,6.565l1.655,3.006l1.803,2.857l1.727,2.206l1.561,1.47l0.811,0.543l0.362,0.191l0.396,0.171
		l0.201,0.073v0.001l0.2,0.062V66.47l0.213,0.055l0.162,0.033l0.23,0.035l0.104,0.012l0.001-0.001l0.059,0.005l0.057,0.004
		l0.104,0.006l0.094,0.003l0.051,0.001h0.004l0.049-0.001h0.007l0.097-0.003l0.09-0.004v-0.001l0.105-0.008v0.002L85.69,66.6v-0.001
		l0.091-0.012l0.194-0.031l0.193-0.041l0.398-0.115l0.42-0.164l0.777-0.421l0.708-0.51l1.549-1.51l1.719-2.245l3.382-5.781
		l3.279-6.587l3.485-6.978l0.009-0.013l1.739-3.12l0.009-0.02l1.617-2.527l0.001,0.001l0.021-0.026l1.662-2.126l0.017-0.021
		l0.017-0.017l1.566-1.496l0.018-0.017l0.024-0.017l0.833-0.576l0.014-0.01l0.017-0.01l0.438-0.238l0.025-0.014l0.463-0.204
		l0.028-0.011l0.391-0.133l0.021-0.006l0.207-0.057l0.016-0.004l0.222-0.048l0.019-0.003l0.204-0.033l0.014-0.003l0.186-0.021
		l0.012-0.003l0.09-0.009h0.008l0.097-0.006h0.009l0.092-0.004h0.007l0.085-0.002h0.116l0.104,0.004h0.007l0.09,0.004h0.008
		l0.098,0.007l0.008,0.004l0.106,0.01h0.009l0.113,0.014l0.012,0.003l0.203,0.033l0.017,0.003l0.205,0.043l0.018,0.004l0.193,0.05
		l0.021,0.007l0.363,0.117l0.026,0.01l0.437,0.183l0.022,0.012l0.402,0.207l0.014,0.008l0.02,0.014l0.905,0.605l0.026,0.018
		l0.019,0.017l1.587,1.495l0.016,0.016l0.018,0.023l1.746,2.231l0.019,0.022l0.008,0.013l3.411,5.767l0.011,0.021l3.283,6.574
		l0.002,0.004l0.125,0.258l-0.614,0.297l-0.124-0.255l-3.278-6.563l-3.396-5.739l-1.71-2.187l-1.551-1.463l-0.863-0.576
		l-0.365-0.188l-0.427-0.179l-0.339-0.111l-0.162-0.042l-0.204-0.043l-0.177-0.028l-0.113-0.014l-0.088-0.009v0.002l-0.098-0.008
		l-0.081-0.004l-0.099-0.003h-0.09l-0.072,0.001v0.001l-0.084,0.003v0.001l-0.09,0.005v0.001l-0.09,0.008v-0.002l-0.175,0.021
		l-0.171,0.027v0.001l-0.219,0.047l-0.186,0.05l-0.362,0.123l-0.447,0.197l-0.4,0.219l-0.795,0.55l-1.534,1.465l-1.625,2.079
		l-1.617,2.526l-0.001-0.001l-1.723,3.089h0.001l-3.486,6.978l-3.277,6.588l-0.013,0.02l-3.406,5.823l-0.013,0.021l-0.01,0.013
		l-1.745,2.278l-0.015,0.02l-0.019,0.019l-1.583,1.543l-0.016,0.016l-0.022,0.016l-0.752,0.541l-0.021,0.016l-0.016,0.008
		l-0.813,0.441l-0.019,0.01l-0.02,0.007l-0.455,0.179l-0.017,0.006l-0.014,0.004l-0.42,0.121l-0.021,0.006l-0.211,0.045L86.1,67.227
		l-0.223,0.036l-0.013,0.003l-0.091,0.011h-0.009l-0.1,0.01l-0.008,0.003l-0.105,0.008h-0.01l-0.098,0.005h-0.007l-0.111,0.004
		H85.32H85.26h-0.004h-0.062h-0.008l-0.104-0.004h-0.008l-0.111-0.006h-0.006l-0.063-0.005H84.89l-0.058-0.005l-0.008-0.002
		l-0.126-0.015l-0.014-0.001l-0.23-0.036l-0.017-0.004l-0.194-0.039l-0.018-0.003l-0.213-0.055l-0.016-0.005l-0.232-0.071
		l-0.014-0.005l-0.211-0.075l-0.02-0.008l-0.415-0.18l-0.024-0.012L82.69,66.57l-0.014-0.006l-0.018-0.014l-0.854-0.571L81.78,65.96
		l-0.02-0.017l-1.596-1.502l-0.016-0.016l-0.02-0.022l-1.756-2.246l-0.014-0.017l-0.007-0.013l-1.818-2.881l-0.011-0.018
		l-1.663-3.021l-0.006-0.012l-3.274-6.568l-3.4-6.825l-3.175-5.442l-1.753-2.327l-1.633-1.61l-0.873-0.613l-0.804-0.403
		l-0.355-0.126l-0.368-0.097l-0.185-0.036l-0.221-0.03l-0.09-0.009v0.002l-0.104-0.008l-0.088-0.005l-0.084-0.002h-0.098
		l-0.091,0.002l-0.083,0.004v0.001l-0.097,0.007v-0.002l-0.077,0.007v0.001l-0.084,0.009v-0.001l-0.075,0.01l-0.008,0.002
		l-0.078,0.013v0.001l-0.207,0.04l-0.183,0.045l-0.379,0.12l-0.397,0.165l-0.385,0.197l-0.454,0.279v-0.001l-0.387,0.277
		l-1.583,1.486l-1.702,2.174l-1.849,2.928l-1.694,3.085l-3.268,6.565L44.658,49.208z"/>
	<path clip-path="url(#SVGID_12_)" fill="none" stroke="#00AEEF" stroke-width="0.216" stroke-miterlimit="22.9256" d="
		M105.261,36.525l-0.001,0.003L105.261,36.525L105.261,36.525z M58.814,32.119L58.814,32.119 M44.658,49.208l3.27-6.567l0.007-0.013
		l1.701-3.1l0.012-0.017l1.863-2.953l0.008-0.012l0.013-0.017l1.733-2.213l0.019-0.023l0.016-0.016l1.616-1.517l0.015-0.015
		l0.021-0.014l0.425-0.306l0.02-0.013l0.462-0.285l0.024-0.013l0.407-0.209l0.024-0.011l0.432-0.181l0.028-0.01l0.389-0.124
		l0.022-0.005l0.222-0.054l0.016-0.004l0.207-0.041l0.011-0.001l0.099-0.016l0.007-0.002l0.093-0.012l0.009-0.002l0.084-0.009h0.004
		l0.091-0.008l0.009-0.004l0.097-0.007h0.007l0.091-0.004h0.009l0.106-0.003h0.112l0.102,0.003h0.01l0.095,0.004h0.007l0.104,0.008
		l0.008,0.004l0.11,0.011l0.016,0.001l0.228,0.032l0.017,0.003l0.208,0.039l0.023,0.005l0.401,0.105l0.027,0.009l0.381,0.136
		l0.018,0.007l0.02,0.009l0.844,0.422l0.021,0.012l0.023,0.016l0.918,0.646l0.021,0.016l0.021,0.021l1.674,1.65l0.021,0.019
		l0.013,0.019l1.778,2.359l0.011,0.016L65.585,37l3.194,5.478l0.011,0.019l3.402,6.83l3.272,6.565l1.655,3.006l1.803,2.857
		l1.727,2.206l1.561,1.47l0.811,0.543l0.362,0.191l0.396,0.171l0.201,0.073v0.001l0.2,0.062V66.47l0.213,0.055l0.162,0.033
		l0.23,0.035l0.104,0.012l0.001-0.001l0.059,0.005l0.057,0.004l0.104,0.006l0.094,0.003l0.051,0.001h0.004l0.049-0.001h0.007
		l0.097-0.003l0.09-0.004v-0.001l0.105-0.008v0.002L85.69,66.6v-0.001l0.091-0.012l0.194-0.031l0.193-0.041l0.398-0.115l0.42-0.164
		l0.777-0.421l0.708-0.51l1.549-1.51l1.719-2.245l3.382-5.781l3.279-6.587l3.485-6.978l0.009-0.013l1.739-3.12l0.009-0.02
		l1.617-2.527l0.001,0.001l0.021-0.026l1.662-2.126l0.017-0.021l0.017-0.017l1.566-1.496l0.018-0.017l0.024-0.017l0.833-0.576
		l0.014-0.01l0.017-0.01l0.438-0.238l0.025-0.014l0.463-0.204l0.028-0.011l0.391-0.133l0.021-0.006l0.207-0.057l0.016-0.004
		l0.222-0.048l0.019-0.003l0.204-0.033l0.014-0.003l0.186-0.021l0.012-0.003l0.09-0.009h0.008l0.097-0.006h0.009l0.092-0.004h0.007
		l0.085-0.002h0.116l0.104,0.004h0.007l0.09,0.004h0.008l0.098,0.007l0.008,0.004l0.106,0.01h0.009l0.113,0.014l0.012,0.003
		l0.203,0.033l0.017,0.003l0.205,0.043l0.018,0.004l0.193,0.05l0.021,0.007l0.363,0.117l0.026,0.01l0.437,0.183l0.022,0.012
		l0.402,0.207l0.014,0.008l0.02,0.014l0.905,0.605l0.026,0.018l0.019,0.017l1.587,1.495l0.016,0.016l0.018,0.023l1.746,2.231
		l0.019,0.022l0.008,0.013l3.411,5.767l0.011,0.021l3.283,6.574l0.002,0.004l0.125,0.258l-0.614,0.297l-0.124-0.255l-3.278-6.563
		l-3.396-5.739l-1.71-2.187l-1.551-1.463l-0.863-0.576l-0.365-0.188l-0.427-0.179l-0.339-0.111l-0.162-0.042l-0.204-0.043
		l-0.177-0.028l-0.113-0.014l-0.088-0.009v0.002l-0.098-0.008l-0.081-0.004l-0.099-0.003h-0.09l-0.072,0.001v0.001l-0.084,0.003
		v0.001l-0.09,0.005v0.001l-0.09,0.008v-0.002l-0.175,0.021l-0.171,0.027v0.001l-0.219,0.047l-0.186,0.05l-0.362,0.123l-0.447,0.197
		l-0.4,0.219l-0.795,0.55l-1.534,1.465l-1.625,2.079l-1.617,2.526l-0.001-0.001l-1.723,3.089h0.001l-3.486,6.978l-3.277,6.588
		l-0.013,0.02l-3.406,5.823l-0.013,0.021l-0.01,0.013l-1.745,2.278l-0.015,0.02l-0.019,0.019l-1.583,1.543l-0.016,0.016
		l-0.022,0.016l-0.752,0.541l-0.021,0.016l-0.016,0.008l-0.813,0.441l-0.019,0.01l-0.02,0.007l-0.455,0.179l-0.017,0.006
		l-0.014,0.004l-0.42,0.121l-0.021,0.006l-0.211,0.045L86.1,67.227l-0.223,0.036l-0.013,0.003l-0.091,0.011h-0.009l-0.1,0.01
		l-0.008,0.003l-0.105,0.008h-0.01l-0.098,0.005h-0.007l-0.111,0.004H85.32H85.26h-0.004h-0.062h-0.008l-0.104-0.004h-0.008
		l-0.111-0.006h-0.006l-0.063-0.005H84.89l-0.058-0.005l-0.008-0.002l-0.126-0.015l-0.014-0.001l-0.23-0.036l-0.017-0.004
		l-0.194-0.039l-0.018-0.003l-0.213-0.055l-0.016-0.005l-0.232-0.071l-0.014-0.005l-0.211-0.075l-0.02-0.008l-0.415-0.18
		l-0.024-0.012L82.69,66.57l-0.014-0.006l-0.018-0.014l-0.854-0.571L81.78,65.96l-0.02-0.017l-1.596-1.502l-0.016-0.016l-0.02-0.022
		l-1.756-2.246l-0.014-0.017l-0.007-0.013l-1.818-2.881l-0.011-0.018l-1.663-3.021l-0.006-0.012l-3.274-6.568l-3.4-6.825
		l-3.175-5.442l-1.753-2.327l-1.633-1.61l-0.873-0.613l-0.804-0.403l-0.355-0.126l-0.368-0.097l-0.185-0.036l-0.221-0.03
		l-0.09-0.009v0.002l-0.104-0.008l-0.088-0.005l-0.084-0.002h-0.098l-0.091,0.002l-0.083,0.004v0.001l-0.097,0.007v-0.002
		l-0.077,0.007v0.001l-0.084,0.009v-0.001l-0.075,0.01l-0.008,0.002l-0.078,0.013v0.001l-0.207,0.04l-0.183,0.045l-0.379,0.12
		l-0.397,0.165l-0.385,0.197l-0.454,0.279v-0.001l-0.387,0.277l-1.583,1.486l-1.702,2.174l-1.849,2.928l-1.694,3.085l-3.268,6.565
		L44.658,49.208z"/>
	
		<line clip-path="url(#SVGID_12_)" fill="none" stroke="#6D6F71" stroke-width="0.216" stroke-miterlimit="22.9256" x1="125.66" y1="49.445" x2="44.676" y2="49.445"/>
	
		<line clip-path="url(#SVGID_12_)" fill="none" stroke="#6D6F71" stroke-width="0.216" stroke-miterlimit="22.9256" x1="125.66" y1="111.449" x2="45.091" y2="111.449"/>
	<path clip-path="url(#SVGID_12_)" fill="#231F20" d="M137.057,146.8l-0.681,2.357h0.559c0.398,0,0.687-0.062,0.866-0.184
		c0.18-0.121,0.332-0.347,0.461-0.676h0.163l-0.611,2.164h-0.176c0.053-0.182,0.079-0.338,0.079-0.467
		c0-0.126-0.024-0.227-0.076-0.303c-0.053-0.076-0.122-0.132-0.212-0.169s-0.276-0.056-0.564-0.056h-0.566l-0.576,1.974
		c-0.055,0.19-0.084,0.336-0.084,0.435c0,0.076,0.038,0.145,0.11,0.202c0.051,0.041,0.175,0.063,0.373,0.063h0.528
		c0.571,0,1.028-0.103,1.373-0.304s0.653-0.555,0.925-1.056h0.164l-0.563,1.658h-4.605l0.057-0.163
		c0.229-0.006,0.382-0.026,0.462-0.062c0.117-0.054,0.202-0.122,0.255-0.202c0.079-0.119,0.172-0.371,0.28-0.756l1.047-3.596
		c0.081-0.29,0.123-0.51,0.123-0.663c0-0.11-0.039-0.198-0.117-0.261c-0.078-0.063-0.229-0.094-0.454-0.094h-0.093l0.052-0.164
		h4.281l-0.369,1.437h-0.163c0.021-0.135,0.031-0.248,0.031-0.338c0-0.155-0.037-0.286-0.114-0.391
		c-0.1-0.136-0.244-0.237-0.435-0.309c-0.142-0.052-0.465-0.079-0.972-0.079H137.057"/>
	<path clip-path="url(#SVGID_12_)" fill="#231F20" d="M140.17,151.549l0.724-0.353h0.073v2.516c0,0.166,0.007,0.271,0.021,0.313
		c0.015,0.04,0.044,0.072,0.087,0.095c0.044,0.022,0.134,0.034,0.269,0.037v0.081h-1.121v-0.081
		c0.141-0.003,0.231-0.015,0.272-0.036c0.042-0.021,0.07-0.051,0.085-0.087c0.017-0.035,0.026-0.143,0.026-0.321v-1.607
		c0-0.217-0.009-0.357-0.023-0.419c-0.01-0.046-0.028-0.08-0.055-0.104c-0.027-0.021-0.061-0.033-0.1-0.033
		c-0.054,0-0.129,0.024-0.225,0.069L140.17,151.549"/>
	<path clip-path="url(#SVGID_12_)" fill="#231F20" d="M136.937,107.846l-0.682,2.356h0.559c0.398,0,0.687-0.062,0.866-0.183
		c0.179-0.122,0.331-0.348,0.46-0.675h0.164l-0.611,2.162h-0.176c0.053-0.182,0.079-0.338,0.079-0.467
		c0-0.126-0.025-0.226-0.075-0.303c-0.054-0.076-0.122-0.132-0.213-0.169c-0.09-0.036-0.276-0.054-0.564-0.054h-0.566l-0.576,1.972
		c-0.056,0.19-0.084,0.336-0.084,0.435c0,0.077,0.037,0.145,0.11,0.203c0.05,0.04,0.175,0.062,0.373,0.062h0.528
		c0.57,0,1.028-0.103,1.373-0.304c0.344-0.201,0.652-0.555,0.925-1.055h0.164l-0.563,1.657h-4.606l0.057-0.163
		c0.23-0.005,0.383-0.027,0.463-0.061c0.116-0.055,0.202-0.121,0.254-0.202c0.08-0.12,0.173-0.372,0.281-0.757l1.047-3.596
		c0.081-0.289,0.123-0.51,0.123-0.663c0-0.11-0.039-0.197-0.117-0.261c-0.078-0.063-0.229-0.094-0.454-0.094h-0.093l0.052-0.164
		h4.281l-0.369,1.437h-0.164c0.021-0.135,0.032-0.247,0.032-0.337c0-0.156-0.037-0.287-0.114-0.392
		c-0.101-0.135-0.244-0.237-0.435-0.308c-0.141-0.053-0.465-0.079-0.972-0.079H136.937"/>
	<path clip-path="url(#SVGID_12_)" fill="#231F20" d="M141.583,114.709l-0.208,0.573h-1.758v-0.081
		c0.517-0.472,0.882-0.856,1.091-1.156c0.212-0.299,0.317-0.571,0.317-0.818c0-0.189-0.058-0.346-0.173-0.468
		c-0.115-0.121-0.256-0.181-0.415-0.181c-0.147,0-0.277,0.042-0.395,0.127c-0.117,0.088-0.203,0.212-0.258,0.378h-0.081
		c0.036-0.271,0.13-0.479,0.281-0.624s0.341-0.217,0.566-0.217c0.243,0,0.445,0.076,0.607,0.232
		c0.161,0.154,0.243,0.339,0.243,0.549c0,0.151-0.037,0.302-0.106,0.454c-0.108,0.235-0.285,0.487-0.527,0.752
		c-0.364,0.398-0.593,0.639-0.684,0.722h0.778c0.157,0,0.268-0.006,0.333-0.018c0.063-0.013,0.121-0.036,0.173-0.072
		c0.05-0.035,0.096-0.086,0.133-0.152H141.583"/>
	<path clip-path="url(#SVGID_12_)" fill="#231F20" d="M142.65,111.037h4.74v0.36h-4.74V111.037 M142.65,109.604h4.74v0.359h-4.74
		V109.604z"/>
	<path clip-path="url(#SVGID_12_)" fill="#231F20" d="M152.757,111.287v-2.958l-2.091,2.958H152.757 M154.282,111.287v0.624h-0.799
		v1.574h-0.727v-1.574h-2.521v-0.562l2.765-3.947h0.483v3.885H154.282z"/>
	<path clip-path="url(#SVGID_12_)" fill="#231F20" d="M157.507,107.846l-0.681,2.356h0.559c0.398,0,0.687-0.062,0.866-0.183
		c0.179-0.122,0.332-0.348,0.461-0.675h0.163l-0.612,2.162h-0.175c0.052-0.182,0.079-0.338,0.079-0.467
		c0-0.126-0.025-0.226-0.076-0.303c-0.053-0.076-0.122-0.132-0.212-0.169c-0.09-0.036-0.276-0.054-0.564-0.054h-0.566l-0.576,1.972
		c-0.055,0.19-0.084,0.336-0.084,0.435c0,0.077,0.038,0.145,0.11,0.203c0.051,0.04,0.175,0.062,0.373,0.062h0.527
		c0.572,0,1.029-0.103,1.373-0.304c0.346-0.201,0.654-0.555,0.926-1.055h0.164l-0.563,1.657h-4.606l0.058-0.163
		c0.229-0.005,0.382-0.027,0.462-0.061c0.116-0.055,0.202-0.121,0.255-0.202c0.079-0.12,0.172-0.372,0.28-0.757l1.047-3.596
		c0.081-0.289,0.123-0.51,0.123-0.663c0-0.11-0.039-0.197-0.117-0.261c-0.078-0.063-0.229-0.094-0.454-0.094h-0.093l0.052-0.164
		h4.281l-0.369,1.437h-0.164c0.022-0.135,0.032-0.247,0.032-0.337c0-0.156-0.037-0.287-0.114-0.392
		c-0.1-0.135-0.244-0.237-0.435-0.308c-0.142-0.053-0.465-0.079-0.973-0.079H157.507"/>
	<path clip-path="url(#SVGID_12_)" fill="#231F20" d="M160.62,112.595l0.724-0.353h0.072v2.515c0,0.167,0.008,0.271,0.021,0.313
		c0.015,0.041,0.044,0.072,0.087,0.095c0.044,0.022,0.134,0.034,0.269,0.037v0.081h-1.121v-0.081
		c0.141-0.003,0.231-0.015,0.272-0.036c0.042-0.021,0.069-0.051,0.085-0.087c0.017-0.034,0.025-0.143,0.025-0.321v-1.607
		c0-0.217-0.008-0.356-0.022-0.418c-0.01-0.047-0.028-0.081-0.055-0.104c-0.027-0.021-0.061-0.032-0.1-0.032
		c-0.054,0-0.129,0.023-0.225,0.068L160.62,112.595"/>
	<path clip-path="url(#SVGID_12_)" fill="#231F20" d="M136.815,45.995l-0.682,2.357h0.559c0.398,0,0.687-0.063,0.866-0.184
		c0.179-0.122,0.331-0.347,0.46-0.675h0.164l-0.612,2.163h-0.175c0.053-0.182,0.079-0.338,0.079-0.467
		c0-0.126-0.025-0.228-0.076-0.304c-0.053-0.075-0.121-0.132-0.211-0.169c-0.091-0.036-0.278-0.055-0.566-0.055h-0.565l-0.575,1.974
		c-0.057,0.19-0.084,0.336-0.084,0.435c0,0.076,0.036,0.144,0.108,0.203c0.051,0.04,0.176,0.061,0.374,0.061h0.528
		c0.571,0,1.029-0.102,1.372-0.303c0.345-0.202,0.653-0.555,0.926-1.056h0.163l-0.563,1.656h-4.606l0.057-0.161
		c0.23-0.007,0.383-0.027,0.462-0.062c0.117-0.054,0.203-0.122,0.255-0.202c0.08-0.12,0.174-0.372,0.281-0.757l1.047-3.595
		c0.081-0.289,0.123-0.51,0.123-0.663c0-0.111-0.039-0.198-0.118-0.261c-0.076-0.063-0.229-0.095-0.453-0.095h-0.094l0.053-0.164
		h4.281l-0.369,1.438h-0.164c0.021-0.135,0.032-0.248,0.032-0.337c0-0.156-0.038-0.287-0.114-0.393
		c-0.101-0.135-0.244-0.236-0.435-0.308c-0.141-0.052-0.466-0.079-0.973-0.079H136.815"/>
	<path clip-path="url(#SVGID_12_)" fill="#231F20" d="M139.627,51.02c0.086-0.201,0.194-0.355,0.323-0.465
		c0.129-0.11,0.291-0.163,0.483-0.163c0.239,0,0.423,0.075,0.55,0.231c0.098,0.116,0.146,0.24,0.146,0.371
		c0,0.217-0.137,0.44-0.41,0.673c0.184,0.072,0.323,0.174,0.416,0.309c0.095,0.133,0.142,0.289,0.142,0.469
		c0,0.258-0.083,0.48-0.246,0.67c-0.215,0.246-0.524,0.37-0.931,0.37c-0.199,0-0.338-0.025-0.409-0.075
		c-0.072-0.05-0.108-0.102-0.108-0.161c0-0.042,0.017-0.079,0.051-0.11c0.035-0.033,0.077-0.051,0.125-0.051
		c0.036,0,0.073,0.008,0.111,0.019c0.024,0.008,0.082,0.035,0.169,0.082c0.089,0.045,0.148,0.073,0.183,0.082
		c0.055,0.015,0.113,0.023,0.175,0.023c0.148,0,0.278-0.058,0.39-0.174c0.11-0.115,0.165-0.252,0.165-0.411
		c0-0.115-0.025-0.228-0.076-0.339c-0.038-0.081-0.08-0.144-0.127-0.186c-0.063-0.059-0.148-0.111-0.257-0.159
		c-0.111-0.048-0.222-0.072-0.338-0.072h-0.069v-0.066c0.116-0.015,0.231-0.055,0.348-0.123c0.116-0.069,0.201-0.152,0.254-0.249
		s0.079-0.203,0.079-0.319c0-0.151-0.048-0.273-0.142-0.365c-0.095-0.094-0.212-0.14-0.354-0.14c-0.226,0-0.416,0.121-0.567,0.364
		L139.627,51.02"/>
	<path clip-path="url(#SVGID_12_)" fill="#231F20" d="M142.528,49.186h4.742v0.358h-4.742V49.186 M142.528,47.752h4.742v0.36h-4.742
		V47.752z"/>
	<path clip-path="url(#SVGID_12_)" fill="#231F20" d="M153.172,48.694c0.053-0.381,0.08-0.687,0.08-0.914
		c0-0.285-0.05-0.591-0.146-0.921c-0.098-0.33-0.234-0.582-0.411-0.758c-0.177-0.177-0.378-0.264-0.604-0.264
		c-0.261,0-0.488,0.116-0.685,0.351c-0.197,0.234-0.295,0.584-0.295,1.046c0,0.618,0.131,1.102,0.392,1.451
		c0.189,0.251,0.424,0.378,0.702,0.378c0.135,0,0.295-0.032,0.479-0.097S153.031,48.811,153.172,48.694 M150.447,51.755v-0.162
		c0.381-0.006,0.735-0.094,1.063-0.266c0.329-0.172,0.647-0.472,0.953-0.898c0.306-0.428,0.52-0.897,0.64-1.41
		c-0.461,0.296-0.877,0.443-1.248,0.443c-0.42,0-0.779-0.162-1.077-0.485c-0.299-0.324-0.449-0.753-0.449-1.29
		c0-0.522,0.15-0.985,0.449-1.394c0.359-0.495,0.831-0.743,1.411-0.743c0.488,0,0.907,0.203,1.256,0.607
		c0.429,0.502,0.642,1.12,0.642,1.855c0,0.66-0.162,1.278-0.487,1.852s-0.778,1.048-1.357,1.425
		c-0.473,0.313-0.986,0.466-1.544,0.466H150.447z"/>
	<path clip-path="url(#SVGID_12_)" fill="#231F20" d="M157.386,45.995l-0.681,2.357h0.558c0.399,0,0.688-0.063,0.867-0.184
		c0.178-0.122,0.331-0.347,0.46-0.675h0.164l-0.612,2.163h-0.176c0.053-0.182,0.08-0.338,0.08-0.467
		c0-0.126-0.025-0.228-0.077-0.304c-0.052-0.075-0.121-0.132-0.211-0.169c-0.09-0.036-0.276-0.055-0.565-0.055h-0.565l-0.576,1.974
		c-0.056,0.19-0.084,0.336-0.084,0.435c0,0.076,0.037,0.144,0.109,0.203c0.051,0.04,0.176,0.061,0.374,0.061h0.528
		c0.57,0,1.028-0.102,1.372-0.303c0.345-0.202,0.653-0.555,0.926-1.056h0.164l-0.563,1.656h-4.606l0.057-0.161
		c0.229-0.007,0.383-0.027,0.463-0.062c0.116-0.054,0.202-0.122,0.254-0.202c0.08-0.12,0.173-0.372,0.281-0.757l1.047-3.595
		c0.081-0.289,0.123-0.51,0.123-0.663c0-0.111-0.039-0.198-0.117-0.261c-0.078-0.063-0.229-0.095-0.455-0.095h-0.093l0.053-0.164
		h4.281l-0.369,1.438h-0.164c0.021-0.135,0.032-0.248,0.032-0.337c0-0.156-0.037-0.287-0.114-0.393
		c-0.101-0.135-0.245-0.236-0.435-0.308c-0.142-0.052-0.465-0.079-0.973-0.079H157.386"/>
	<path clip-path="url(#SVGID_12_)" fill="#231F20" d="M160.499,50.744l0.724-0.352h0.072v2.515c0,0.167,0.007,0.271,0.021,0.312
		s0.044,0.072,0.087,0.096c0.043,0.021,0.133,0.034,0.269,0.037v0.081h-1.121v-0.081c0.14-0.003,0.231-0.016,0.271-0.036
		c0.043-0.022,0.071-0.051,0.086-0.087c0.016-0.034,0.024-0.144,0.024-0.321v-1.608c0-0.217-0.007-0.356-0.021-0.418
		c-0.01-0.047-0.029-0.081-0.056-0.104c-0.027-0.021-0.061-0.033-0.1-0.033c-0.054,0-0.129,0.024-0.225,0.069L160.499,50.744"/>
	<polyline clip-path="url(#SVGID_12_)" fill="none" stroke="#231F20" stroke-width="0.7999" stroke-miterlimit="22.9256" points="
		45.183,4.854 45.183,161.548 125.786,161.373 125.786,5.059 	"/>
</g>
<g>
	<defs>
		<polygon id="SVGID_13_" points="125.974,161.589 44.722,161.589 37.706,169.731 133.332,169.858 		"/>
	</defs>
	<clipPath id="SVGID_14_">
		<use xlink:href="#SVGID_13_"  overflow="visible"/>
	</clipPath>
	
		<linearGradient id="SVGID_15_" gradientUnits="userSpaceOnUse" x1="-320.8262" y1="992.8477" x2="-313.5503" y2="992.8477" gradientTransform="matrix(0 1 -1 0 1078.3667 482.9116)">
		<stop  offset="0" style="stop-color:#44C8F5"/>
		<stop  offset="1" style="stop-color:#FFFFFF"/>
	</linearGradient>
	<polyline clip-path="url(#SVGID_14_)" fill="url(#SVGID_15_)" points="125.974,161.589 44.722,161.589 37.706,169.731 
		133.332,169.858 125.974,161.589 	"/>
</g>
<g>
	<defs>
		<polyline id="SVGID_16_" points="36.753,3.865 162.611,3.865 162.611,170.769 36.753,170.769 		"/>
	</defs>
	<clipPath id="SVGID_17_">
		<use xlink:href="#SVGID_16_"  overflow="visible"/>
	</clipPath>
	
		<line clip-path="url(#SVGID_17_)" fill="none" stroke="#6D6F71" stroke-width="0.216" stroke-miterlimit="22.9256" x1="125.66" y1="149.248" x2="45.091" y2="149.248"/>
	<path clip-path="url(#SVGID_17_)" fill="#231F20" d="M55.015,131.03h0.431l-1.155,3.792c0.366,0,0.669-0.107,0.909-0.321
		c0.24-0.213,0.462-0.635,0.665-1.265l0.307-0.958c0.146-0.461,0.338-0.801,0.575-1.022c0.239-0.222,0.487-0.331,0.748-0.331
		c0.075,0,0.152,0.011,0.228,0.034v0.162c-0.255,0.003-0.449,0.206-0.584,0.608l-0.338,1.032c-0.185,0.556-0.381,0.984-0.588,1.287
		c-0.206,0.303-0.477,0.537-0.814,0.707c-0.338,0.171-0.725,0.256-1.164,0.256l-0.546,1.814h-0.444l0.551-1.814
		c-0.378-0.051-0.684-0.211-0.917-0.483c-0.231-0.273-0.349-0.579-0.349-0.918c0-0.303,0.082-0.743,0.246-1.323
		c0.088-0.313,0.132-0.543,0.132-0.689c0-0.312-0.105-0.468-0.317-0.468c-0.012,0-0.03,0.002-0.052,0.005l0.025-0.161
		c0.098-0.033,0.19-0.049,0.281-0.049c0.232,0,0.413,0.084,0.543,0.252c0.132,0.169,0.195,0.396,0.195,0.685
		c0,0.277-0.067,0.636-0.202,1.075c-0.132,0.437-0.198,0.746-0.198,0.929c0,0.24,0.061,0.446,0.179,0.624
		c0.119,0.175,0.281,0.286,0.49,0.333L55.015,131.03"/>
	<path clip-path="url(#SVGID_17_)" fill="#231F20" d="M58.019,134.011l0.724-0.353h0.073v2.516c0,0.166,0.007,0.271,0.02,0.312
		c0.016,0.041,0.044,0.073,0.087,0.095c0.044,0.023,0.134,0.035,0.27,0.038v0.081H58.07v-0.081c0.14-0.003,0.23-0.015,0.271-0.036
		c0.042-0.022,0.07-0.051,0.085-0.087c0.018-0.035,0.026-0.143,0.026-0.321v-1.607c0-0.218-0.008-0.357-0.023-0.419
		c-0.01-0.046-0.027-0.081-0.055-0.104c-0.027-0.021-0.06-0.033-0.099-0.033c-0.055,0-0.129,0.024-0.226,0.069L58.019,134.011"/>
	<path clip-path="url(#SVGID_17_)" fill="#231F20" d="M84.834,95.628h0.431l-1.154,3.793c0.365,0,0.669-0.106,0.908-0.32
		c0.239-0.213,0.463-0.636,0.664-1.266l0.309-0.958c0.145-0.461,0.337-0.801,0.574-1.021c0.238-0.223,0.486-0.331,0.748-0.331
		c0.075,0,0.151,0.01,0.229,0.034v0.162c-0.256,0.003-0.45,0.205-0.585,0.607l-0.338,1.032c-0.185,0.556-0.381,0.985-0.588,1.288
		c-0.205,0.302-0.478,0.537-0.814,0.707c-0.338,0.171-0.725,0.255-1.165,0.255l-0.545,1.814h-0.443l0.55-1.814
		c-0.378-0.05-0.685-0.21-0.916-0.483c-0.233-0.273-0.351-0.579-0.351-0.918c0-0.303,0.082-0.743,0.246-1.323
		c0.088-0.313,0.132-0.543,0.132-0.689c0-0.311-0.104-0.467-0.316-0.467c-0.011,0-0.029,0.002-0.052,0.005l0.025-0.162
		c0.098-0.033,0.19-0.048,0.282-0.048c0.231,0,0.412,0.084,0.542,0.252c0.131,0.168,0.195,0.396,0.195,0.684
		c0,0.277-0.067,0.637-0.202,1.075c-0.132,0.438-0.198,0.746-0.198,0.929c0,0.24,0.061,0.446,0.178,0.624
		c0.119,0.176,0.282,0.286,0.491,0.333L84.834,95.628"/>
	<path clip-path="url(#SVGID_17_)" fill="#231F20" d="M89.372,100.727l-0.209,0.572h-1.758v-0.081
		c0.517-0.473,0.882-0.856,1.092-1.156c0.211-0.298,0.317-0.571,0.317-0.819c0-0.188-0.059-0.345-0.174-0.466
		c-0.114-0.122-0.255-0.182-0.415-0.182c-0.146,0-0.277,0.041-0.395,0.128s-0.202,0.211-0.258,0.378h-0.081
		c0.036-0.272,0.13-0.48,0.282-0.624c0.151-0.146,0.341-0.219,0.566-0.219c0.243,0,0.444,0.077,0.606,0.233
		c0.162,0.154,0.243,0.339,0.243,0.548c0,0.152-0.036,0.302-0.105,0.454c-0.109,0.237-0.285,0.489-0.528,0.753
		c-0.363,0.399-0.592,0.64-0.684,0.721h0.779c0.156,0,0.268-0.006,0.333-0.018c0.062-0.012,0.121-0.036,0.172-0.072
		c0.051-0.034,0.096-0.085,0.133-0.15H89.372"/>
	<path clip-path="url(#SVGID_17_)" fill="#231F20" d="M70.827,32.33h0.431l-1.155,3.792c0.366,0,0.67-0.106,0.908-0.321
		c0.24-0.213,0.463-0.634,0.665-1.265l0.309-0.958c0.145-0.461,0.337-0.801,0.573-1.021c0.239-0.222,0.487-0.331,0.748-0.331
		c0.076,0,0.152,0.011,0.229,0.034v0.162c-0.256,0.003-0.45,0.205-0.585,0.607l-0.338,1.032c-0.186,0.556-0.381,0.984-0.588,1.288
		c-0.205,0.302-0.478,0.537-0.814,0.707c-0.338,0.171-0.725,0.255-1.165,0.255L69.5,38.125h-0.445l0.552-1.814
		c-0.378-0.05-0.685-0.21-0.916-0.483c-0.233-0.272-0.351-0.579-0.351-0.918c0-0.303,0.082-0.743,0.246-1.323
		c0.088-0.313,0.132-0.543,0.132-0.689c0-0.312-0.104-0.466-0.316-0.466c-0.012,0-0.03,0.001-0.053,0.004l0.025-0.162
		c0.098-0.033,0.191-0.048,0.282-0.048c0.231,0,0.413,0.084,0.543,0.252c0.131,0.168,0.194,0.396,0.194,0.684
		c0,0.277-0.066,0.636-0.201,1.075c-0.133,0.437-0.198,0.746-0.198,0.929c0,0.24,0.06,0.447,0.178,0.624
		c0.119,0.176,0.282,0.287,0.491,0.333L70.827,32.33"/>
	<path clip-path="url(#SVGID_17_)" fill="#231F20" d="M73.53,35.587c0.085-0.201,0.193-0.354,0.322-0.465
		c0.129-0.109,0.291-0.163,0.484-0.163c0.239,0,0.421,0.076,0.549,0.232c0.098,0.116,0.146,0.24,0.146,0.371
		c0,0.217-0.136,0.439-0.409,0.673c0.183,0.072,0.322,0.174,0.415,0.308c0.095,0.133,0.142,0.289,0.142,0.47
		c0,0.258-0.083,0.48-0.246,0.67c-0.215,0.246-0.523,0.369-0.931,0.369c-0.199,0-0.337-0.024-0.409-0.074
		c-0.071-0.051-0.107-0.103-0.107-0.161c0-0.042,0.017-0.079,0.051-0.111c0.034-0.033,0.076-0.05,0.125-0.05
		c0.036,0,0.073,0.007,0.11,0.018c0.025,0.009,0.083,0.035,0.17,0.082c0.088,0.045,0.148,0.073,0.183,0.082
		c0.054,0.016,0.112,0.024,0.174,0.024c0.149,0,0.279-0.058,0.391-0.174c0.108-0.115,0.165-0.252,0.165-0.411
		c0-0.116-0.026-0.229-0.076-0.339c-0.038-0.081-0.08-0.145-0.126-0.187c-0.063-0.058-0.149-0.11-0.26-0.159
		c-0.11-0.048-0.222-0.071-0.337-0.071h-0.068v-0.066c0.114-0.015,0.23-0.055,0.348-0.124c0.115-0.069,0.201-0.151,0.254-0.25
		c0.052-0.096,0.079-0.202,0.079-0.317c0-0.151-0.048-0.273-0.143-0.366s-0.211-0.14-0.353-0.14c-0.227,0-0.417,0.121-0.567,0.364
		L73.53,35.587"/>
</g>
</svg>
