<?xml version="1.0" encoding="utf-8"?>
<!-- Generator: Adobe Illustrator 15.1.0, SVG Export Plug-In . SVG Version: 6.00 Build 0)  -->
<!DOCTYPE svg PUBLIC "-//W3C//DTD SVG 1.1//EN" "http://www.w3.org/Graphics/SVG/1.1/DTD/svg11.dtd">
<svg version="1.1" id="Layer_1" xmlns="http://www.w3.org/2000/svg" xmlns:xlink="http://www.w3.org/1999/xlink" x="0px" y="0px"
	 width="40.535px" height="32.598px" viewBox="0 0 40.535 32.598" enable-background="new 0 0 40.535 32.598" xml:space="preserve">
<rect fill="#3650A2" width="40.535" height="32.598"/>
<g>
	<path fill="#FFFFFF" d="M33.966,26.823h-7.078l-1.343-1.332v-7.077h7.078l1.344,1.331V26.823z M32.291,25.148v-6.397h-6.409v6.397
		H32.291z"/>
</g>
<g>
	<path fill="#FFFFFF" d="M13.847,14.51H6.769l-1.343-1.332V6.101h7.078l1.344,1.331V14.51z M12.172,12.835V6.438H5.763v6.397H12.172
		z"/>
</g>
<g>
	<path fill="#FFFFFF" d="M13.847,27.175H6.769l-1.343-1.332v-7.077h7.078l1.344,1.331V27.175z M12.172,25.5v-6.397H5.763V25.5
		H12.172z"/>
</g>
<g>
	<path fill="#FFFFFF" d="M33.966,14.51h-7.078l-1.343-1.332V6.101h7.078l1.344,1.331V14.51z M32.291,12.835V6.438h-6.409v6.397
		H32.291z"/>
</g>
<g>
	<path fill="#EC008C" d="M36.553,15.106c-1.18,1.317-2.287,2.68-3.319,4.088s-1.981,2.853-2.847,4.334
		c-0.064,0.109-0.144,0.262-0.239,0.458c-0.296,0.593-0.718,0.889-1.265,0.889c-0.232,0-0.424-0.034-0.574-0.103
		s-0.29-0.187-0.417-0.355c-0.105-0.146-0.203-0.336-0.294-0.571c-0.091-0.234-0.198-0.579-0.321-1.035
		c-0.009-0.027-0.018-0.062-0.027-0.103c-0.141-0.506-0.212-0.822-0.212-0.95c0-0.26,0.151-0.498,0.455-0.715
		c0.303-0.216,0.603-0.324,0.899-0.324c0.096,0,0.173,0.028,0.232,0.086c0.059,0.057,0.127,0.179,0.205,0.365
		c0.045,0.114,0.103,0.269,0.171,0.465c0.155,0.438,0.285,0.656,0.39,0.656c0.091,0,0.451-0.499,1.08-1.497
		c0.602-0.952,1.119-1.752,1.552-2.399c0.606-0.907,1.067-1.563,1.384-1.965c0.317-0.404,0.603-0.71,0.858-0.92
		c0.223-0.183,0.51-0.326,0.861-0.431s0.795-0.176,1.333-0.212L36.553,15.106z"/>
</g>
<line fill="none" stroke="#A7A9AC" stroke-width="2" x1="0.029" y1="0.928" x2="40.563" y2="0.928"/>
<line fill="none" stroke="#A7A9AC" stroke-width="2" x1="-0.028" y1="31.655" x2="40.507" y2="31.655"/>
</svg>
