<?xml version="1.0" encoding="UTF-8" standalone="no"?>
<!-- Created with Inkscape (http://www.inkscape.org/) -->

<svg
   xmlns:dc="http://purl.org/dc/elements/1.1/"
   xmlns:cc="http://creativecommons.org/ns#"
   xmlns:rdf="http://www.w3.org/1999/02/22-rdf-syntax-ns#"
   xmlns:svg="http://www.w3.org/2000/svg"
   xmlns="http://www.w3.org/2000/svg"
   xmlns:inkscape="http://www.inkscape.org/namespaces/inkscape"
   version="1.1"
   width="181.25"
   height="180"
   id="svg2"
   xml:space="preserve"><metadata
     id="metadata8"><rdf:RDF><cc:Work
         rdf:about=""><dc:format>image/svg+xml</dc:format><dc:type
           rdf:resource="http://purl.org/dc/dcmitype/StillImage" /></cc:Work></rdf:RDF></metadata><defs
     id="defs6"><clipPath
       id="clipPath48"><path
         d="m 70.5273,846.66 1315.9827,0 0,249.27 -1315.9827,0 0,-249.27 z"
         inkscape:connector-curvature="0"
         id="path50" /></clipPath><linearGradient
       x1="-12.4637"
       y1="0"
       x2="12.4637"
       y2="0"
       id="linearGradient52"
       gradientUnits="userSpaceOnUse"
       gradientTransform="matrix(0,1,-1,0,72.8518,97.1297)"><stop
         id="stop54"
         style="stop-color:#b3e6fa;stop-opacity:1"
         offset="0" /><stop
         id="stop56"
         style="stop-color:#ffffff;stop-opacity:1"
         offset="1" /></linearGradient></defs><g
     transform="matrix(1.25,0,0,-1.25,0,180)"
     id="g10"><g
       transform="scale(0.1,0.1)"
       id="g12"><path
         d="m 764.938,366.355 347.352,0.118"
         inkscape:connector-curvature="0"
         id="path14"
         style="fill:none;stroke:#231f20;stroke-width:5.00029993;stroke-linecap:butt;stroke-linejoin:miter;stroke-miterlimit:22.92560005;stroke-opacity:1;stroke-dasharray:10.0006, 15.0009;stroke-dashoffset:0" /><path
         d="m 764.938,477.051 347.352,0.117"
         inkscape:connector-curvature="0"
         id="path16"
         style="fill:none;stroke:#231f20;stroke-width:5.00029993;stroke-linecap:butt;stroke-linejoin:miter;stroke-miterlimit:22.92560005;stroke-opacity:1;stroke-dasharray:10.0006, 15.0009;stroke-dashoffset:0" /><path
         d="m 764.938,253.902 347.352,0.118"
         inkscape:connector-curvature="0"
         id="path18"
         style="fill:none;stroke:#231f20;stroke-width:5.00029993;stroke-linecap:butt;stroke-linejoin:miter;stroke-miterlimit:22.92560005;stroke-opacity:1;stroke-dasharray:10.0006, 15.0009;stroke-dashoffset:0" /><path
         d="m 605.691,257.688 214.258,0 0,-7.997 -214.258,0 0,7.997 z m 214.258,0 0,-7.997 0,7.997"
         inkscape:connector-curvature="0"
         id="path20"
         style="fill:#00adef;fill-opacity:1;fill-rule:nonzero;stroke:none" /><path
         d="m 605.691,257.688 214.258,0 0,-7.997 -214.258,0 0,7.997 z m 214.258,0 0,-7.997 0,7.997 z"
         inkscape:connector-curvature="0"
         id="path22"
         style="fill:none;stroke:#00adef;stroke-width:2.16000009;stroke-linecap:butt;stroke-linejoin:miter;stroke-miterlimit:22.92560005;stroke-opacity:1;stroke-dasharray:none" /><path
         d="m 560.34,370.434 292.027,0 0,-8 -292.027,0 0,8 z m 292.027,0 0,-8 0,8"
         inkscape:connector-curvature="0"
         id="path24"
         style="fill:#00adef;fill-opacity:1;fill-rule:nonzero;stroke:none" /><path
         d="m 560.34,370.434 292.027,0 0,-8 -292.027,0 0,8 z m 292.027,0 0,-8 0,8 z"
         inkscape:connector-curvature="0"
         id="path26"
         style="fill:none;stroke:#00adef;stroke-width:2.16000009;stroke-linecap:butt;stroke-linejoin:miter;stroke-miterlimit:22.92560005;stroke-opacity:1;stroke-dasharray:none" /><path
         d="m 511.805,481.723 378.476,0 0,-8 -378.476,0 0,8 z m 378.476,0 0,-8 0,8"
         inkscape:connector-curvature="0"
         id="path28"
         style="fill:#00adef;fill-opacity:1;fill-rule:nonzero;stroke:none" /><path
         d="m 511.805,481.723 378.476,0 0,-8 -378.476,0 0,8 z m 378.476,0 0,-8 0,8 z"
         inkscape:connector-curvature="0"
         id="path30"
         style="fill:none;stroke:#00adef;stroke-width:2.16000009;stroke-linecap:butt;stroke-linejoin:miter;stroke-miterlimit:22.92560005;stroke-opacity:1;stroke-dasharray:none" /><path
         d="m 458.801,602.223 490.308,0 0,-8 -490.308,0 0,8 z m 490.308,0 0,-8 0,8"
         inkscape:connector-curvature="0"
         id="path32"
         style="fill:#00adef;fill-opacity:1;fill-rule:nonzero;stroke:none" /><path
         d="m 458.801,602.223 490.308,0 0,-8 -490.308,0 0,8 z m 490.308,0 0,-8 0,8 z"
         inkscape:connector-curvature="0"
         id="path34"
         style="fill:none;stroke:#00adef;stroke-width:2.16000009;stroke-linecap:butt;stroke-linejoin:miter;stroke-miterlimit:22.92560005;stroke-opacity:1;stroke-dasharray:none" /><path
         d="m 393.875,701.18 616.645,0 0,-8 -616.645,0 0,8 z m 616.645,0 0,-8 0,8"
         inkscape:connector-curvature="0"
         id="path36"
         style="fill:#00adef;fill-opacity:1;fill-rule:nonzero;stroke:none" /><path
         d="m 393.875,701.18 616.645,0 0,-8 -616.645,0 0,8 z m 616.645,0 0,-8 0,8 z"
         inkscape:connector-curvature="0"
         id="path38"
         style="fill:none;stroke:#00adef;stroke-width:2.16000009;stroke-linecap:butt;stroke-linejoin:miter;stroke-miterlimit:22.92560005;stroke-opacity:1;stroke-dasharray:none" /><path
         d="m 297.598,801.91 864.382,0 0,-8 -864.382,0 0,8 z m 864.382,0 0,-8 0,8"
         inkscape:connector-curvature="0"
         id="path40"
         style="fill:#00adef;fill-opacity:1;fill-rule:nonzero;stroke:none" /><path
         d="m 297.598,801.91 864.382,0 0,-8 -864.382,0 0,8 z m 864.382,0 0,-8 0,8 z"
         inkscape:connector-curvature="0"
         id="path42"
         style="fill:none;stroke:#00adef;stroke-width:2.16000009;stroke-linecap:butt;stroke-linejoin:miter;stroke-miterlimit:22.92560005;stroke-opacity:1;stroke-dasharray:none" /><g
         id="g44"><g
           clip-path="url(#clipPath48)"
           id="g46"><path
             d="m 70.5273,846.66 1315.98,0 0,249.273 -1315.98,0 0,-249.273 z"
             inkscape:connector-curvature="0"
             id="path58"
             style="fill:url(#linearGradient52);fill-opacity:1;fill-rule:nonzero;stroke:none" /></g></g><path
         d="m 4.62891,846.66 1401.40109,0"
         inkscape:connector-curvature="0"
         id="path60"
         style="fill:none;stroke:#000000;stroke-width:5.00029993;stroke-linecap:butt;stroke-linejoin:miter;stroke-miterlimit:22.92560005;stroke-opacity:1;stroke-dasharray:none" /><path
         d="m 1441.49,846.66 -66.06,18.379 c 9.43,-12.254 9.43,-24.504 0,-36.754 l 66.06,18.375"
         inkscape:connector-curvature="0"
         id="path62"
         style="fill:#000000;fill-opacity:1;fill-rule:evenodd;stroke:none" /><path
         d="m 719.734,3.10547 0,1392.03453"
         inkscape:connector-curvature="0"
         id="path64"
         style="fill:none;stroke:#000000;stroke-width:5.00029993;stroke-linecap:butt;stroke-linejoin:miter;stroke-miterlimit:22.92560005;stroke-opacity:1;stroke-dasharray:none" /><path
         d="m 719.734,1430.6 -18.379,-66.06 c 12.254,9.44 24.504,9.44 36.754,0 l -18.375,66.06"
         inkscape:connector-curvature="0"
         id="path66"
         style="fill:#000000;fill-opacity:1;fill-rule:evenodd;stroke:none" /><g
         transform="scale(10,10)"
         id="g68"><text
           transform="matrix(1,0,0,-1,80.2039,133.022)"
           id="text70"><tspan
             x="0 8.4945354"
             y="0"
             id="tspan72"
             style="font-size:8.99985981px;font-style:italic;font-variant:normal;font-weight:normal;writing-mode:lr-tb;fill:#231f20;fill-opacity:1;fill-rule:nonzero;stroke:none;font-family:TimesNewRomanPSMT;-inkscape-font-specification:TimesNewRomanPSMT-NormalItalic">Vx</tspan></text>
<text
           transform="matrix(1,0,0,-1,85.70156,133.022)"
           id="text74"><tspan
             x="0 6.9914064"
             y="0"
             id="tspan76"
             style="font-size:8.99985981px;font-variant:normal;font-weight:normal;writing-mode:lr-tb;fill:#231f20;fill-opacity:1;fill-rule:nonzero;stroke:none;font-family:TimesNewRomanPSMT;-inkscape-font-specification:TimesNewRomanPSMT">()</tspan></text>
<text
           transform="matrix(1,0,0,-1,134.24726,88.6232)"
           id="text78"><tspan
             x="0"
             y="0"
             id="tspan80"
             style="font-size:8.99985981px;font-style:italic;font-variant:normal;font-weight:normal;writing-mode:lr-tb;fill:#231f20;fill-opacity:1;fill-rule:nonzero;stroke:none;font-family:TimesNewRomanPSMT;-inkscape-font-specification:TimesNewRomanPSMT-NormalItalic">x</tspan></text>
</g><path
         d="M 57.5977,97.1055 896.152,97.2227"
         inkscape:connector-curvature="0"
         id="path82"
         style="fill:none;stroke:#231f20;stroke-width:5.00029993;stroke-linecap:butt;stroke-linejoin:miter;stroke-miterlimit:22.92560005;stroke-opacity:1;stroke-dasharray:10.0006, 15.0009;stroke-dashoffset:0" /><g
         transform="scale(10,10)"
         id="g84"><text
           transform="matrix(1,0,0,-1,90.9418,6.46172)"
           id="text86"><tspan
             x="0"
             y="0"
             id="tspan88"
             style="font-size:8.99985981px;font-style:italic;font-variant:normal;font-weight:normal;writing-mode:lr-tb;fill:#231f20;fill-opacity:1;fill-rule:nonzero;stroke:none;font-family:TimesNewRomanPSMT;-inkscape-font-specification:TimesNewRomanPSMT-NormalItalic">V</tspan></text>
<text
           transform="matrix(1,0,0,-1,96.43907,4.66172)"
           id="text90"><tspan
             x="0 3.4992182 4.7488256"
             y="0"
             id="tspan92"
             style="font-size:4.4999299px;font-variant:normal;font-weight:normal;writing-mode:lr-tb;fill:#231f20;fill-opacity:1;fill-rule:nonzero;stroke:none;font-family:TimesNewRomanPSMT;-inkscape-font-specification:TimesNewRomanPSMT">min</tspan></text>
</g><path
         d="M 162.598,835.785 C 258.887,829.504 316.711,792.957 370.352,723.148 554.762,483.145 614.496,92.8477 719.738,97.1992 840.969,102.219 822.973,520.387 1036.09,720.473 c 60.67,56.953 186.01,109.922 289.01,114.672"
         inkscape:connector-curvature="0"
         id="path94"
         style="fill:none;stroke:#231f20;stroke-width:9.92129993;stroke-linecap:butt;stroke-linejoin:miter;stroke-miterlimit:22.92560005;stroke-opacity:1;stroke-dasharray:none" /><g
         transform="scale(10,10)"
         id="g96"><text
           transform="matrix(1,0,0,-1,111.633,22.2793)"
           id="text98"><tspan
             x="0"
             y="0"
             id="tspan100"
             style="font-size:8.99985981px;font-style:italic;font-variant:normal;font-weight:normal;writing-mode:lr-tb;fill:#231f20;fill-opacity:1;fill-rule:nonzero;stroke:none;font-family:TimesNewRomanPSMT;-inkscape-font-specification:TimesNewRomanPSMT-NormalItalic">E</tspan></text>
<text
           transform="matrix(1,0,0,-1,117.13066,20.4793)"
           id="text102"><tspan
             x="0"
             y="0"
             id="tspan104"
             style="font-size:4.4999299px;font-variant:normal;font-weight:normal;writing-mode:lr-tb;fill:#231f20;fill-opacity:1;fill-rule:nonzero;stroke:none;font-family:TimesNewRomanPSMT;-inkscape-font-specification:TimesNewRomanPSMT">1</tspan></text>
<text
           transform="matrix(1,0,0,-1,111.633,33.5246)"
           id="text106"><tspan
             x="0"
             y="0"
             id="tspan108"
             style="font-size:8.99985981px;font-style:italic;font-variant:normal;font-weight:normal;writing-mode:lr-tb;fill:#231f20;fill-opacity:1;fill-rule:nonzero;stroke:none;font-family:TimesNewRomanPSMT;-inkscape-font-specification:TimesNewRomanPSMT-NormalItalic">E</tspan></text>
<text
           transform="matrix(1,0,0,-1,117.13066,31.7246)"
           id="text110"><tspan
             x="0"
             y="0"
             id="tspan112"
             style="font-size:4.4999299px;font-variant:normal;font-weight:normal;writing-mode:lr-tb;fill:#231f20;fill-opacity:1;fill-rule:nonzero;stroke:none;font-family:TimesNewRomanPSMT;-inkscape-font-specification:TimesNewRomanPSMT">2</tspan></text>
<text
           transform="matrix(1,0,0,-1,111.633,44.5941)"
           id="text114"><tspan
             x="0"
             y="0"
             id="tspan116"
             style="font-size:8.99985981px;font-style:italic;font-variant:normal;font-weight:normal;writing-mode:lr-tb;fill:#231f20;fill-opacity:1;fill-rule:nonzero;stroke:none;font-family:TimesNewRomanPSMT;-inkscape-font-specification:TimesNewRomanPSMT-NormalItalic">E</tspan></text>
<text
           transform="matrix(1,0,0,-1,117.13066,42.7941)"
           id="text118"><tspan
             x="0"
             y="0"
             id="tspan120"
             style="font-size:4.4999299px;font-variant:normal;font-weight:normal;writing-mode:lr-tb;fill:#231f20;fill-opacity:1;fill-rule:nonzero;stroke:none;font-family:TimesNewRomanPSMT;-inkscape-font-specification:TimesNewRomanPSMT">3</tspan></text>
</g><path
         d="m 1154.28,607.348 0.12,-63.746"
         inkscape:connector-curvature="0"
         id="path122"
         style="fill:none;stroke:#231f20;stroke-width:5.00029993;stroke-linecap:butt;stroke-linejoin:miter;stroke-miterlimit:22.92560005;stroke-opacity:1;stroke-dasharray:10.0006, 15.0009;stroke-dashoffset:0" /><path
         d="m 134.207,815.629 0,-241.297"
         inkscape:connector-curvature="0"
         id="path124"
         style="fill:none;stroke:#231f20;stroke-width:5.00029993;stroke-linecap:butt;stroke-linejoin:miter;stroke-miterlimit:22.92560005;stroke-opacity:1;stroke-dasharray:none" /><path
         d="m 134.207,841.414 13.063,-26.129 -26.129,0 13.066,26.129"
         inkscape:connector-curvature="0"
         id="path126"
         style="fill:#231f20;fill-opacity:1;fill-rule:evenodd;stroke:none" /><path
         d="m 134.207,124.91 0,259.098"
         inkscape:connector-curvature="0"
         id="path128"
         style="fill:none;stroke:#231f20;stroke-width:5.00029993;stroke-linecap:butt;stroke-linejoin:miter;stroke-miterlimit:22.92560005;stroke-opacity:1;stroke-dasharray:none" /><path
         d="m 134.207,99.125 -13.066,26.125 26.129,0 -13.063,-26.125"
         inkscape:connector-curvature="0"
         id="path130"
         style="fill:#231f20;fill-opacity:1;fill-rule:evenodd;stroke:none" /><g
         transform="scale(10,10)"
         id="g132"><text
           transform="matrix(1,0,0,-1,1.38711,49.7855)"
           id="text134"><tspan
             x="0 4.1849351 6.6868958 11.411822 15.731755 20.051687 22.55365 25.775599"
             y="0"
             id="tspan136"
             style="font-size:8.99985981px;font-style:italic;font-variant:normal;font-weight:normal;writing-mode:lr-tb;fill:#231f20;fill-opacity:1;fill-rule:nonzero;stroke:none;font-family:TimesNewRomanPSMT;-inkscape-font-specification:TimesNewRomanPSMT-NormalItalic">διακριτό</tspan><tspan
             x="3.4433601 8.4202824 13.145209 17.58214 22.100069"
             y="9.9675798"
             id="tspan138"
             style="font-size:8.99985981px;font-style:italic;font-variant:normal;font-weight:normal;writing-mode:lr-tb;fill:#231f20;fill-opacity:1;fill-rule:nonzero;stroke:none;font-family:TimesNewRomanPSMT;-inkscape-font-specification:TimesNewRomanPSMT-NormalItalic">φάσμα</tspan></text>
</g><path
         d="m 135.062,1112.34 0,-259.102"
         inkscape:connector-curvature="0"
         id="path140"
         style="fill:none;stroke:#231f20;stroke-width:5.00029993;stroke-linecap:butt;stroke-linejoin:miter;stroke-miterlimit:22.92560005;stroke-opacity:1;stroke-dasharray:none" /><path
         d="m 135.062,1138.12 13.067,-26.12 -26.133,0 13.066,26.12"
         inkscape:connector-curvature="0"
         id="path142"
         style="fill:#231f20;fill-opacity:1;fill-rule:evenodd;stroke:none" /><g
         transform="scale(10,10)"
         id="g144"><text
           transform="matrix(1,0,0,-1,17.8,103.68)"
           id="text146"><tspan
             x="0 4.4369311 8.5678663 12.563805 16.109749 20.069687 23.615633"
             y="0"
             id="tspan148"
             style="font-size:8.99985981px;font-style:italic;font-variant:normal;font-weight:normal;writing-mode:lr-tb;fill:#231f20;fill-opacity:1;fill-rule:nonzero;stroke:none;font-family:TimesNewRomanPSMT;-inkscape-font-specification:TimesNewRomanPSMT-NormalItalic">συνεχές</tspan><tspan
             x="1.94336 6.9202824 11.645209 16.08214 20.600069"
             y="9.9675798"
             id="tspan150"
             style="font-size:8.99985981px;font-style:italic;font-variant:normal;font-weight:normal;writing-mode:lr-tb;fill:#231f20;fill-opacity:1;fill-rule:nonzero;stroke:none;font-family:TimesNewRomanPSMT;-inkscape-font-specification:TimesNewRomanPSMT-NormalItalic">φάσμα</tspan></text>
</g></g></g></svg>